<svg xmlns="http://www.w3.org/2000/svg" width="800" height="500" viewBox="0 0 800 500">
  <defs>
    <linearGradient id="bg" x1="0%" y1="0%" x2="100%" y2="100%">
      <stop offset="0%" style="stop-color:#0ea5e9"/>
      <stop offset="100%" style="stop-color:#6366f1"/>
    </linearGradient>
    <filter id="shadow">
      <feDropShadow dx="0" dy="4" stdDeviation="8" flood-opacity="0.2"/>
    </filter>
  </defs>
  <rect width="800" height="500" fill="url(#bg)"/>
  <rect x="180" y="100" width="440" height="300" rx="12" fill="white" filter="url(#shadow)" opacity="0.95"/>
  <rect x="200" y="130" width="200" height="16" rx="8" fill="#0ea5e9" opacity="0.6"/>
  <rect x="200" y="160" width="360" height="10" rx="5" fill="#e2e8f0"/>
  <rect x="200" y="180" width="300" height="10" rx="5" fill="#e2e8f0"/>
  <rect x="200" y="220" width="80" height="80" rx="12" fill="#f0f9ff" opacity="0.8"/>
  <text x="240" y="265" text-anchor="middle" font-size="28" fill="#0ea5e9" font-weight="bold">AI</text>
  <rect x="295" y="220" width="80" height="80" rx="12" fill="#f0f0ff" opacity="0.8"/>
  <text x="335" y="265" text-anchor="middle" font-size="28" fill="#6366f1" font-weight="bold">设计</text>
  <rect x="390" y="220" width="80" height="80" rx="12" fill="#fff0f0" opacity="0.8"/>
  <text x="430" y="265" text-anchor="middle" font-size="28" fill="#ef4444" font-weight="bold">工具</text>
  <rect x="485" y="220" width="80" height="80" rx="12" fill="#f0fff4" opacity="0.8"/>
  <text x="525" y="265" text-anchor="middle" font-size="28" fill="#22c55e" font-weight="bold">学习</text>
  <rect x="200" y="320" width="160" height="36" rx="18" fill="url(#bg)"/>
  <text x="280" y="343" text-anchor="middle" font-size="14" fill="white" font-weight="600">Visit Site</text>
  <circle cx="620" cy="140" r="50" fill="#0ea5e9" opacity="0.3"/>
  <circle cx="680" cy="380" r="35" fill="#6366f1" opacity="0.25"/>
  <circle cx="120" cy="400" r="45" fill="#0ea5e9" opacity="0.2"/>
</svg>
