<svg width="512" height="512" viewBox="0 0 512 512" fill="none" xmlns="http://www.w3.org/2000/svg">
<rect x="50" y="50" width="412" height="412" rx="110" fill="url(#paint0_linear_1667_9)"/>
<path d="M345.455 128.027C350.898 126.907 355.999 131.065 355.999 136.622V182.1C355.999 182.101 355.999 182.101 356 182.101C356.001 182.101 356.001 182.102 356.001 182.102V315.429C356.001 340.7 344.174 350.831 331.998 354.753C327.349 356.908 322.047 358.131 316.419 358.131C298.011 358.13 283.088 345.073 283.088 328.966C283.088 328.286 283.115 327.612 283.167 326.945C283.169 326.92 283.152 326.898 283.128 326.894C283.105 326.89 283.088 326.87 283.088 326.847C283.12 310.2 302.894 296.679 322.669 295.638C342.459 294.597 341.418 283.139 341.418 276.889V197.346C341.418 193.178 337.592 190.06 333.51 190.9L234.166 211.354C231.107 211.983 228.912 214.676 228.912 217.799V341.453C228.912 366.721 217.087 376.853 204.912 380.775C200.262 382.931 194.959 384.154 189.33 384.154C170.921 384.154 155.998 371.097 155.998 354.989C155.998 354.31 156.026 353.636 156.079 352.969C156.08 352.944 156.063 352.921 156.038 352.917C156.015 352.914 155.998 352.893 155.998 352.87C156.031 336.223 175.806 322.703 195.58 321.662C215.371 320.62 214.329 309.163 214.329 302.913V208.129C214.329 208.127 214.331 208.125 214.333 208.125C214.336 208.125 214.338 208.123 214.338 208.12V165.75C214.338 159.504 218.728 154.119 224.846 152.859L345.455 128.027Z" fill="white"/>
<defs>
<linearGradient id="paint0_linear_1667_9" x1="256" y1="50" x2="256" y2="462" gradientUnits="userSpaceOnUse">
<stop stop-color="#FB5976"/>
<stop offset="1" stop-color="#FA243B"/>
</linearGradient>
</defs>
</svg>
