<svg width="512" height="512" viewBox="0 0 512 512" fill="none" xmlns="http://www.w3.org/2000/svg">
<rect x="50" y="50" width="412" height="412" rx="110" fill="url(#paint0_linear_1683_427)"/>
<rect x="116.5" y="115.5" width="75" height="75" rx="15" fill="url(#paint1_linear_1683_427)"/>
<rect x="218.5" y="115.5" width="75" height="75" rx="15" fill="url(#paint2_linear_1683_427)"/>
<rect x="320.5" y="115.5" width="75" height="75" rx="15" fill="url(#paint3_linear_1683_427)"/>
<rect x="116.5" y="218.5" width="75" height="75" rx="15" fill="url(#paint4_linear_1683_427)"/>
<rect x="218.5" y="218.5" width="75" height="75" rx="15" fill="url(#paint5_linear_1683_427)"/>
<rect x="320.5" y="218.5" width="75" height="75" rx="15" fill="url(#paint6_linear_1683_427)"/>
<rect x="116.5" y="321.5" width="75" height="75" rx="15" fill="url(#paint7_linear_1683_427)"/>
<rect x="218.5" y="321.5" width="75" height="75" rx="15" fill="url(#paint8_linear_1683_427)"/>
<rect x="320.5" y="321.5" width="75" height="75" rx="15" fill="url(#paint9_linear_1683_427)"/>
<defs>
<linearGradient id="paint0_linear_1683_427" x1="256" y1="50" x2="256" y2="462" gradientUnits="userSpaceOnUse">
<stop stop-color="white"/>
<stop offset="1" stop-color="#EBEBEB"/>
</linearGradient>
<linearGradient id="paint1_linear_1683_427" x1="154" y1="115.5" x2="154" y2="190.5" gradientUnits="userSpaceOnUse">
<stop stop-color="#8DFE7D"/>
<stop offset="1" stop-color="#1EDA2C"/>
</linearGradient>
<linearGradient id="paint2_linear_1683_427" x1="256" y1="115.5" x2="256" y2="190.5" gradientUnits="userSpaceOnUse">
<stop stop-color="#FFDF46"/>
<stop offset="1" stop-color="#FFB706"/>
</linearGradient>
<linearGradient id="paint3_linear_1683_427" x1="358" y1="115.5" x2="358" y2="190.5" gradientUnits="userSpaceOnUse">
<stop stop-color="#FFB22A"/>
<stop offset="1" stop-color="#F97B28"/>
</linearGradient>
<linearGradient id="paint4_linear_1683_427" x1="154" y1="218.5" x2="154" y2="293.5" gradientUnits="userSpaceOnUse">
<stop stop-color="#FD5D53"/>
<stop offset="1" stop-color="#CD1A05"/>
</linearGradient>
<linearGradient id="paint5_linear_1683_427" x1="256" y1="218.5" x2="256" y2="293.5" gradientUnits="userSpaceOnUse">
<stop stop-color="#D0DFE3"/>
<stop offset="1" stop-color="#898D8E"/>
</linearGradient>
<linearGradient id="paint6_linear_1683_427" x1="358" y1="218.5" x2="358" y2="293.5" gradientUnits="userSpaceOnUse">
<stop stop-color="#FF5D7A"/>
<stop offset="1" stop-color="#EB3550"/>
</linearGradient>
<linearGradient id="paint7_linear_1683_427" x1="154" y1="321.5" x2="154" y2="396.5" gradientUnits="userSpaceOnUse">
<stop stop-color="#CC80F0"/>
<stop offset="1" stop-color="#923AD3"/>
</linearGradient>
<linearGradient id="paint8_linear_1683_427" x1="256" y1="321.5" x2="256" y2="396.5" gradientUnits="userSpaceOnUse">
<stop stop-color="#4EDDFF"/>
<stop offset="1" stop-color="#296CF4"/>
</linearGradient>
<linearGradient id="paint9_linear_1683_427" x1="358" y1="321.5" x2="358" y2="396.5" gradientUnits="userSpaceOnUse">
<stop stop-color="#79E8DE"/>
<stop offset="1" stop-color="#00C478"/>
</linearGradient>
</defs>
</svg>
