<svg xmlns="http://www.w3.org/2000/svg" width="800" height="500" viewBox="0 0 800 500">
  <defs>
    <linearGradient id="bg" x1="0%" y1="0%" x2="100%" y2="100%">
      <stop offset="0%" style="stop-color:#ff6b6b"/>
      <stop offset="50%" style="stop-color:#feca57"/>
      <stop offset="100%" style="stop-color:#48dbfb"/>
    </linearGradient>
    <filter id="shadow">
      <feDropShadow dx="0" dy="4" stdDeviation="8" flood-opacity="0.2"/>
    </filter>
  </defs>
  <rect width="800" height="500" fill="url(#bg)"/>
  <rect x="180" y="100" width="440" height="300" rx="12" fill="white" filter="url(#shadow)" opacity="0.95"/>
  <rect x="200" y="130" width="200" height="16" rx="8" fill="#ff6b6b" opacity="0.6"/>
  <rect x="200" y="160" width="360" height="10" rx="5" fill="#e2e8f0"/>
  <rect x="200" y="180" width="300" height="10" rx="5" fill="#e2e8f0"/>
  <rect x="200" y="240" width="80" height="80" rx="12" fill="#ff6b6b" opacity="0.9"/>
  <rect x="295" y="240" width="80" height="80" rx="12" fill="#feca57" opacity="0.9"/>
  <rect x="390" y="240" width="80" height="80" rx="12" fill="#48dbfb" opacity="0.9"/>
  <rect x="485" y="240" width="80" height="80" rx="12" fill="#ff9ff3" opacity="0.9"/>
  <rect x="200" y="340" width="160" height="36" rx="18" fill="url(#bg)"/>
  <text x="280" y="363" text-anchor="middle" font-size="14" fill="white" font-weight="600">Pick Color</text>
  <circle cx="620" cy="140" r="50" fill="#ff6b6b" opacity="0.3"/>
  <circle cx="680" cy="380" r="35" fill="#feca57" opacity="0.25"/>
  <circle cx="120" cy="400" r="45" fill="#48dbfb" opacity="0.2"/>
</svg>
