<svg width="512" height="512" viewBox="0 0 512 512" fill="none" xmlns="http://www.w3.org/2000/svg">
<g clip-path="url(#clip0_1666_207)">
<rect x="50" y="50" width="412" height="412" rx="110" fill="#D8D6CC"/>
<rect width="412" height="412" transform="translate(50 50)" fill="#E5E5DB"/>
<path d="M228.533 387.735C157.949 387.735 100.742 330.529 100.742 259.944C100.742 189.36 157.949 132.153 228.533 132.153C299.118 132.153 356.325 189.36 356.325 259.944C356.325 330.529 299.118 387.735 228.533 387.735ZM228.533 302.626C268.667 302.626 298.991 318.68 310.84 334.861C328.804 315.112 339.889 288.866 339.889 259.944C339.889 198.406 290.072 148.589 228.533 148.589C166.995 148.589 117.306 198.406 117.306 259.944C117.306 288.739 128.135 314.985 146.1 334.733C158.076 318.68 188.4 302.626 228.533 302.626ZM228.533 280.839C204.071 280.585 185.214 260.072 185.087 232.806C184.96 207.197 204.326 185.792 228.533 185.792C252.741 185.792 271.98 207.197 271.98 232.806C271.98 260.072 252.996 280.967 228.533 280.839Z" fill="#B5AF9B"/>
<rect x="386.234" y="325" width="76" height="137" fill="#4CD964"/>
<rect x="386.234" y="187" width="76" height="138" fill="#FF9500"/>
<rect x="386.234" y="50" width="76" height="137" fill="#5AC8FA"/>
</g>
<defs>
<clipPath id="clip0_1666_207">
<rect x="50" y="50" width="412" height="412" rx="110" fill="white"/>
</clipPath>
</defs>
</svg>
