<svg width="412" height="412" viewBox="0 0 412 412" fill="none" xmlns="http://www.w3.org/2000/svg">
<rect width="412" height="412" rx="110" fill="url(#paint0_linear_1679_122)"/>
<circle cx="206" cy="206" r="180.25" fill="url(#paint1_linear_1679_122)"/>
<rect x="203.586" y="38.625" width="4.82812" height="30.5781" fill="white"/>
<rect x="203.586" y="342.797" width="4.82812" height="30.5781" fill="white"/>
<rect x="174.557" y="41.5859" width="4.82812" height="30.5781" transform="rotate(-10 174.557 41.5859)" fill="white"/>
<rect x="227.377" y="341.137" width="4.82812" height="30.5781" transform="rotate(-10 227.377 341.137)" fill="white"/>
<rect x="146.486" y="49.5469" width="4.82812" height="30.5781" transform="rotate(-20 146.486 49.5469)" fill="white"/>
<rect x="250.52" y="335.375" width="4.82812" height="30.5781" transform="rotate(-20 250.52 335.375)" fill="white"/>
<rect width="4.82812" height="30.5781" transform="matrix(0.939693 0.34202 0.34202 -0.939693 146.484 362.453)" fill="white"/>
<rect width="4.82812" height="30.5781" transform="matrix(0.939693 0.34202 0.34202 -0.939693 250.518 76.625)" fill="white"/>
<rect width="4.82812" height="30.5781" transform="matrix(0.984808 0.173648 0.173648 -0.984808 174.557 370.414)" fill="white"/>
<rect width="4.82812" height="30.5781" transform="matrix(0.984808 0.173648 0.173648 -0.984808 227.377 70.8633)" fill="white"/>
<rect x="120.221" y="62.2578" width="4.82812" height="30.5781" transform="rotate(-30 120.221 62.2578)" fill="white"/>
<rect x="272.307" y="325.676" width="4.82812" height="30.5781" transform="rotate(-30 272.307 325.676)" fill="white"/>
<rect width="4.82812" height="30.5781" transform="matrix(0.866025 0.5 0.5 -0.866025 120.221 349.742)" fill="white"/>
<rect width="4.82812" height="30.5781" transform="matrix(0.866025 0.5 0.5 -0.866025 272.307 86.3242)" fill="white"/>
<rect x="96.5645" y="79.3359" width="4.82812" height="30.5781" transform="rotate(-40 96.5645 79.3359)" fill="white"/>
<rect x="292.082" y="312.344" width="4.82812" height="30.5781" transform="rotate(-40 292.082 312.344)" fill="white"/>
<rect width="4.82812" height="30.5781" transform="matrix(0.766044 0.642788 0.642788 -0.766044 96.5645 332.664)" fill="white"/>
<rect width="4.82812" height="30.5781" transform="matrix(0.766044 0.642788 0.642788 -0.766044 292.082 99.6562)" fill="white"/>
<rect x="76.2324" y="100.266" width="4.82812" height="30.5781" transform="rotate(-50 76.2324 100.266)" fill="white"/>
<rect x="309.24" y="295.781" width="4.82812" height="30.5781" transform="rotate(-50 309.24 295.781)" fill="white"/>
<rect width="4.82812" height="30.5781" transform="matrix(0.642788 0.766044 0.766044 -0.642788 76.2324 311.734)" fill="white"/>
<rect width="4.82812" height="30.5781" transform="matrix(0.642788 0.766044 0.766044 -0.642788 309.24 116.219)" fill="white"/>
<rect x="59.8418" y="124.406" width="4.82812" height="30.5781" transform="rotate(-60 59.8418 124.406)" fill="white"/>
<rect x="323.262" y="276.492" width="4.82812" height="30.5781" transform="rotate(-60 323.262 276.492)" fill="white"/>
<rect width="4.82812" height="30.5781" transform="matrix(0.5 0.866025 0.866025 -0.5 59.8418 287.594)" fill="white"/>
<rect width="4.82812" height="30.5781" transform="matrix(0.5 0.866025 0.866025 -0.5 323.262 135.508)" fill="white"/>
<rect x="47.8926" y="151.023" width="4.82812" height="30.5781" transform="rotate(-70 47.8926 151.023)" fill="white"/>
<rect x="333.721" y="255.055" width="4.82812" height="30.5781" transform="rotate(-70 333.721 255.055)" fill="white"/>
<rect width="4.82812" height="30.5781" transform="matrix(0.34202 0.939693 0.939693 -0.34202 47.8926 260.977)" fill="white"/>
<rect width="4.82812" height="30.5781" transform="matrix(0.34202 0.939693 0.939693 -0.34202 333.721 156.945)" fill="white"/>
<rect x="40.748" y="179.316" width="4.82812" height="30.5781" transform="rotate(-80 40.748 179.316)" fill="white"/>
<rect x="340.299" y="232.133" width="4.82812" height="30.5781" transform="rotate(-80 340.299 232.133)" fill="white"/>
<rect width="4.82812" height="30.5781" transform="matrix(0.173648 0.984808 0.984808 -0.173648 40.748 232.684)" fill="white"/>
<rect width="4.82812" height="30.5781" transform="matrix(0.173648 0.984808 0.984808 -0.173648 340.299 179.867)" fill="white"/>
<rect x="38.625" y="208.414" width="4.82812" height="30.5781" transform="rotate(-90 38.625 208.414)" fill="white"/>
<rect x="342.797" y="208.414" width="4.82812" height="30.5781" transform="rotate(-90 342.797 208.414)" fill="white"/>
<rect x="189.008" y="39.4727" width="4.82812" height="19.3125" transform="rotate(-5 189.008 39.4727)" fill="white"/>
<rect x="216.5" y="353.711" width="4.82812" height="19.3125" transform="rotate(-5 216.5 353.711)" fill="white"/>
<rect x="218.182" y="39.0508" width="4.82812" height="19.3125" transform="rotate(5 218.182 39.0508)" fill="white"/>
<rect x="190.691" y="353.289" width="4.82812" height="19.3125" transform="rotate(5 190.691 353.289)" fill="white"/>
<rect x="160.348" y="44.9531" width="4.82812" height="19.3125" transform="rotate(-15 160.348 44.9531)" fill="white"/>
<rect x="241.99" y="349.641" width="4.82812" height="19.3125" transform="rotate(-15 241.99 349.641)" fill="white"/>
<rect width="4.82812" height="19.3125" transform="matrix(0.965926 0.258819 0.258819 -0.965926 160.348 367.047)" fill="white"/>
<rect width="4.82812" height="19.3125" transform="matrix(0.965926 0.258819 0.258819 -0.965926 241.99 62.3594)" fill="white"/>
<rect x="133.076" y="55.3281" width="4.82812" height="19.3125" transform="rotate(-25 133.076 55.3281)" fill="white"/>
<rect x="266.387" y="341.211" width="4.82812" height="19.3125" transform="rotate(-25 266.387 341.211)" fill="white"/>
<rect width="4.82812" height="19.3125" transform="matrix(0.906308 0.422618 0.422618 -0.906308 133.076 356.672)" fill="white"/>
<rect width="4.82812" height="19.3125" transform="matrix(0.906308 0.422618 0.422618 -0.906308 266.387 70.7891)" fill="white"/>
<rect x="108.02" y="70.2812" width="4.82812" height="19.3125" transform="rotate(-35 108.02 70.2812)" fill="white"/>
<rect x="288.947" y="328.672" width="4.82812" height="19.3125" transform="rotate(-35 288.947 328.672)" fill="white"/>
<rect width="4.82812" height="19.3125" transform="matrix(0.819152 0.573576 0.573576 -0.819152 108.02 341.719)" fill="white"/>
<rect width="4.82812" height="19.3125" transform="matrix(0.819152 0.573576 0.573576 -0.819152 288.947 83.3281)" fill="white"/>
<rect x="85.9414" y="89.3555" width="4.82812" height="19.3125" transform="rotate(-45 85.9414 89.3555)" fill="white"/>
<rect x="308.99" y="312.402" width="4.82812" height="19.3125" transform="rotate(-45 308.99 312.402)" fill="white"/>
<rect x="67.5098" y="111.977" width="4.82812" height="19.3125" transform="rotate(-55 67.5098 111.977)" fill="white"/>
<rect x="325.9" y="292.902" width="4.82812" height="19.3125" transform="rotate(-55 325.9 292.902)" fill="white"/>
<rect width="4.82812" height="19.3125" transform="matrix(0.573576 0.819152 0.819152 -0.573576 67.5098 300.023)" fill="white"/>
<rect width="4.82812" height="19.3125" transform="matrix(0.573576 0.819152 0.819152 -0.573576 325.9 119.098)" fill="white"/>
<rect x="53.2852" y="137.453" width="4.82812" height="19.3125" transform="rotate(-65 53.2852 137.453)" fill="white"/>
<rect x="339.17" y="270.762" width="4.82812" height="19.3125" transform="rotate(-65 339.17 270.762)" fill="white"/>
<rect width="4.82812" height="19.3125" transform="matrix(0.422618 0.906308 0.906308 -0.422618 53.2852 274.547)" fill="white"/>
<rect width="4.82812" height="19.3125" transform="matrix(0.422618 0.906308 0.906308 -0.422618 339.17 141.238)" fill="white"/>
<rect x="43.7031" y="165.012" width="4.82812" height="19.3125" transform="rotate(-75 43.7031 165.012)" fill="white"/>
<rect x="348.393" y="246.652" width="4.82812" height="19.3125" transform="rotate(-75 348.393 246.652)" fill="white"/>
<rect width="4.82812" height="19.3125" transform="matrix(0.258819 0.965926 0.965926 -0.258819 43.7051 246.988)" fill="white"/>
<rect width="4.82812" height="19.3125" transform="matrix(0.258819 0.965926 0.965926 -0.258819 348.395 165.348)" fill="white"/>
<rect x="39.0508" y="193.816" width="4.82812" height="19.3125" transform="rotate(-85 39.0508 193.816)" fill="white"/>
<rect x="353.287" y="221.309" width="4.82812" height="19.3125" transform="rotate(-85 353.287 221.309)" fill="white"/>
<rect width="4.82812" height="19.3125" transform="matrix(0.0871557 0.996195 0.996195 -0.0871557 39.0508 218.18)" fill="white"/>
<rect width="4.82812" height="19.3125" transform="matrix(0.0871557 0.996195 0.996195 -0.0871557 353.289 190.688)" fill="white"/>
<rect x="39.4727" y="222.992" width="4.82812" height="19.3125" transform="rotate(-95 39.4727 222.992)" fill="white"/>
<rect x="353.711" y="195.5" width="4.82812" height="19.3125" transform="rotate(-95 353.711 195.5)" fill="white"/>
<rect width="4.82812" height="19.3125" transform="matrix(-0.0871557 0.996195 0.996195 0.0871557 39.4727 189.008)" fill="white"/>
<rect width="4.82812" height="19.3125" transform="matrix(-0.0871557 0.996195 0.996195 0.0871557 353.711 216.5)" fill="white"/>
<g filter="url(#filter0_d_1679_122)">
<path d="M324.353 87.6495L217.381 217.382L194.621 194.622L324.353 87.6495Z" fill="#FE3C30"/>
<path d="M87.6495 324.353L217.382 217.381L194.622 194.621L87.6495 324.353Z" fill="white"/>
</g>
<defs>
<filter id="filter0_d_1679_122" x="86.7129" y="87.6484" width="238.578" height="238.578" filterUnits="userSpaceOnUse" color-interpolation-filters="sRGB">
<feFlood flood-opacity="0" result="BackgroundImageFix"/>
<feColorMatrix in="SourceAlpha" type="matrix" values="0 0 0 0 0 0 0 0 0 0 0 0 0 0 0 0 0 0 127 0" result="hardAlpha"/>
<feOffset dy="0.9375"/>
<feGaussianBlur stdDeviation="0.46875"/>
<feColorMatrix type="matrix" values="0 0 0 0 0 0 0 0 0 0 0 0 0 0 0 0 0 0 0.25 0"/>
<feBlend mode="normal" in2="BackgroundImageFix" result="effect1_dropShadow_1679_122"/>
<feBlend mode="normal" in="SourceGraphic" in2="effect1_dropShadow_1679_122" result="shape"/>
</filter>
<linearGradient id="paint0_linear_1679_122" x1="206" y1="0" x2="206" y2="412" gradientUnits="userSpaceOnUse">
<stop stop-color="#F6F6F6"/>
<stop offset="1" stop-color="#E8E8E8"/>
</linearGradient>
<linearGradient id="paint1_linear_1679_122" x1="206" y1="26.3046" x2="206" y2="385.695" gradientUnits="userSpaceOnUse">
<stop stop-color="#1BC9FA"/>
<stop offset="0.760051" stop-color="#1F70F0"/>
</linearGradient>
</defs>
</svg>
